<svg width="18" height="18" viewBox="0 0 18 18" fill="none" xmlns="http://www.w3.org/2000/svg">
<path d="M0.858947 4.55775L4.79673 4.56291C5.0205 4.56321 5.235 4.65238 5.39302 4.81083C5.55105 4.96927 5.63966 5.18399 5.63937 5.40777L5.63531 8.5018C5.63501 8.72558 5.54584 8.94007 5.3874 9.0981C5.22895 9.25612 5.01423 9.34474 4.79045 9.34444L0.852954 9.33928C0.742128 9.33917 0.632409 9.31723 0.530063 9.27471C0.427718 9.23219 0.334752 9.16992 0.256476 9.09146C0.1782 9.01301 0.116146 8.9199 0.0738608 8.81746C0.0315752 8.71501 0.00988562 8.60525 0.010031 8.49442L0.0140903 5.40067C0.0143839 5.17689 0.10356 4.9624 0.262002 4.80437C0.420443 4.64635 0.635171 4.55745 0.858947 4.55775Z" fill="url(#paint0_linear_1687_36)"/>
<path d="M9.01724 3.44349C9.79389 3.44451 10.4243 2.81574 10.4253 2.03909C10.4264 1.26244 9.79758 0.632015 9.02093 0.630996C8.24428 0.629976 7.61386 1.25875 7.61284 2.0354C7.61182 2.81205 8.24059 3.44247 9.01724 3.44349Z" fill="url(#paint1_linear_1687_36)"/>
<path d="M3.10217 10.1441C3.10164 10.5808 3.27282 11.0002 3.57876 11.3119L8.15104 11.3179L8.15257 10.1493C8.15267 10.075 8.12325 10.0037 8.07079 9.95111C8.01832 9.89851 7.94711 9.86891 7.87282 9.86881L3.38238 9.86292C3.30799 9.86319 3.23673 9.89293 3.18421 9.94563C3.13169 9.99832 3.10219 10.0697 3.10217 10.1441Z" fill="white"/>
<path d="M17.0843 14.5239C16.9478 14.0166 16.6409 13.5718 16.215 13.2642C15.9279 13.0568 15.5986 12.9204 15.2538 12.8627C15.0063 12.8212 14.8127 12.5822 14.8141 12.3314C14.8091 12.0617 14.7387 11.7972 14.6089 11.5607C14.4792 11.3242 14.294 11.1228 14.0692 10.9736C13.5675 10.6397 13.1716 9.87859 13.014 9.01549C12.9615 8.72835 13.1955 8.48117 13.4874 8.48156C13.7101 8.48192 13.9239 8.39395 14.0818 8.23693C14.2397 8.07991 14.3289 7.86666 14.3298 7.64397L14.3305 7.08541C14.3302 6.86272 14.2416 6.64924 14.0841 6.49181C13.9266 6.33437 13.7131 6.24584 13.4904 6.24562C12.2142 6.24395 10.8651 6.19714 9.80699 5.48371C9.48095 5.26388 9.29871 5.06221 9.16059 4.90906C9.14928 4.89662 9.1443 4.87978 9.14615 4.86306C9.1691 4.65598 9.12947 4.44654 9.03207 4.26191C8.93054 4.06945 8.77132 3.9136 8.57674 3.8162C8.43782 3.74965 8.28566 3.71531 8.13161 3.71574C7.97757 3.71616 7.8256 3.75135 7.68705 3.81867C7.54849 3.88599 7.42691 3.98372 7.33137 4.10456C7.23584 4.2254 7.1688 4.36624 7.13526 4.51659L6.3233 8.37147C6.29941 8.48596 6.29972 8.60417 6.32421 8.71853C6.3487 8.83289 6.39682 8.94087 6.4655 9.03553C6.53418 9.13019 6.6219 9.20945 6.72301 9.26822C6.82413 9.32698 6.93642 9.36396 7.05267 9.37677L8.43537 9.53158C8.50661 9.53928 8.57218 9.57405 8.61854 9.6287C8.66489 9.68335 8.68848 9.75371 8.68445 9.82526L8.51583 12.6183C8.49386 12.9821 8.09125 13.1132 8.00172 12.76C7.89516 12.3395 7.5881 11.8798 7.15433 11.8792L4.96344 11.8763C4.21018 11.8753 3.48874 12.2588 3.18589 12.9485C2.89036 13.6215 2.67845 14.3801 2.86007 14.9493C2.9146 15.1218 3.00954 15.2789 3.13701 15.4073C3.26447 15.5357 3.42076 15.6319 3.59288 15.6877C3.80109 15.7516 3.99205 15.9101 4.05411 16.1189C4.14476 16.4238 4.3153 16.7017 4.55122 16.9221C4.8843 17.2333 5.32295 17.4066 5.77875 17.4072C6.23456 17.4078 6.67365 17.2356 7.00756 16.9253C7.56523 16.4071 8.16818 15.7359 8.92946 15.7369L12.3988 15.7414C12.4456 15.7389 12.4915 15.7271 12.5338 15.7068C12.5859 15.6817 12.6624 15.7034 12.678 15.7591C12.711 15.8772 12.755 15.992 12.8095 16.102C12.8305 16.1462 12.8628 16.1842 12.9032 16.212C12.9435 16.2399 12.9904 16.2567 13.0393 16.2607C13.0881 16.2648 13.1371 16.256 13.1815 16.2351C13.2259 16.2143 13.264 16.1822 13.292 16.142C13.3306 16.0867 13.416 16.1091 13.4327 16.1745C13.4787 16.3555 13.5527 16.5285 13.6523 16.6873C13.7828 16.8953 13.9545 17.0745 14.1568 17.2137C14.3591 17.3529 14.5878 17.4492 14.8287 17.4967C15.0696 17.5443 15.3177 17.542 15.5577 17.4901C15.7977 17.4382 16.0246 17.3377 16.2243 17.1948C16.4241 17.0519 16.5925 16.8697 16.7191 16.6593C16.8458 16.4489 16.9281 16.2149 16.9609 15.9715C16.9841 15.7997 16.9823 15.6259 16.9559 15.4553C16.9386 15.3436 17.0239 15.2314 17.0954 15.1438C17.1415 15.0873 17.1635 15.0148 17.1566 14.9422C17.146 14.8007 17.122 14.6606 17.0843 14.5239ZM5.77949 16.8485C5.47218 16.8481 5.17598 16.7335 4.94837 16.5271C4.58694 16.1992 4.97119 15.7317 5.45915 15.7323L6.10275 15.7332C6.59071 15.7338 6.97373 16.2024 6.61144 16.5293C6.38329 16.7351 6.08679 16.8489 5.77949 16.8485ZM11.2368 13.266C11.2364 13.5518 11.0044 13.7832 10.7186 13.7829C10.4112 13.7825 10.172 13.5158 10.2047 13.2102L10.6326 9.21525C10.6522 9.0303 10.6097 8.8441 10.5118 8.68594C10.414 8.52778 10.2663 8.40663 10.0921 8.34154L8.71464 7.82532C8.65132 7.8017 8.59872 7.7559 8.56662 7.69642C8.53453 7.63694 8.52511 7.56784 8.54013 7.50194C8.63786 7.08267 9.1455 6.90495 9.52711 7.10423C9.76791 7.22998 10.0189 7.33506 10.2774 7.41835C10.813 7.59091 11.2436 8.05034 11.2429 8.61298L11.2368 13.266ZM15.3343 16.944C15.1477 16.9682 14.958 16.9498 14.7796 16.8899C14.6012 16.8301 14.4388 16.7305 14.3045 16.5987C14.1703 16.4668 14.0678 16.3062 14.0048 16.1289C13.9514 15.9786 13.9275 15.8197 13.9342 15.6609C13.9366 15.6048 13.9594 15.552 13.9945 15.5083C14.0156 15.482 14.041 15.4593 14.07 15.4421C14.692 15.0715 15.4236 14.929 16.1392 15.0391C16.1699 15.0438 16.1987 15.0566 16.2231 15.0756C16.2423 15.0906 16.2586 15.109 16.2701 15.1304C16.3607 15.299 16.411 15.4865 16.4169 15.6782C16.4232 15.8821 16.3789 16.0845 16.288 16.2672C16.1972 16.4499 16.0626 16.6073 15.8962 16.7254C15.7297 16.8434 15.5367 16.9185 15.3343 16.944Z" fill="url(#paint2_linear_1687_36)"/>
<defs>
<linearGradient id="paint0_linear_1687_36" x1="0.0151978" y1="4.55664" x2="5.73782" y2="4.68384" gradientUnits="userSpaceOnUse">
<stop stop-color="#418612"/>
<stop offset="1" stop-color="#6BCC29"/>
</linearGradient>
<linearGradient id="paint1_linear_1687_36" x1="7.61469" y1="0.62915" x2="10.4762" y2="0.683778" gradientUnits="userSpaceOnUse">
<stop stop-color="#418612"/>
<stop offset="1" stop-color="#6BCC29"/>
</linearGradient>
<linearGradient id="paint2_linear_1687_36" x1="2.80688" y1="3.70874" x2="17.4226" y2="3.9983" gradientUnits="userSpaceOnUse">
<stop stop-color="#418612"/>
<stop offset="1" stop-color="#6BCC29"/>
</linearGradient>
</defs>
</svg>
