<svg width="19" height="19" viewBox="0 0 19 19" fill="none" xmlns="http://www.w3.org/2000/svg">
<path d="M13.5886 5.62342H12.8855V3.93552C12.8855 3.62061 12.7332 3.32243 12.478 3.1379C12.2228 2.95337 11.8919 2.90204 11.5928 3.00071L4.70214 5.27338C4.50529 5.33804 4.33392 5.46326 4.21251 5.63116C4.0911 5.79905 4.02586 6.00103 4.02612 6.20822V16.367C4.02612 16.9098 4.46771 17.3514 5.0105 17.3514H13.5886C14.1314 17.3514 14.573 16.9098 14.573 16.367V6.6078C14.573 6.06504 14.1314 5.62342 13.5886 5.62342ZM13.7293 16.367C13.7293 16.4446 13.6662 16.5077 13.5886 16.5077H5.0105C4.93296 16.5077 4.86987 16.4446 4.86987 16.367V6.6078C4.86987 6.53026 4.93296 6.46717 5.0105 6.46717H13.5886C13.6662 6.46717 13.7293 6.53026 13.7293 6.6078V16.367ZM11.8571 3.80199C11.9165 3.78241 11.9618 3.80587 11.9836 3.82159C12.0053 3.83731 12.0418 3.873 12.0418 3.93552V5.62345H6.33457L11.8571 3.80199Z" fill="white"/>
<path d="M6.48706 11.3463H12.1121C12.3451 11.3463 12.5339 11.1574 12.5339 10.9244C12.5339 10.6914 12.3451 10.5025 12.1121 10.5025H11.9899C11.808 9.3382 10.8858 8.41595 9.72144 8.23409V8.02271C9.72144 7.78972 9.53255 7.60083 9.29956 7.60083C9.06658 7.60083 8.87769 7.78972 8.87769 8.02271V8.23409C7.71337 8.41595 6.79112 9.3382 6.60926 10.5025H6.48706C6.25407 10.5025 6.06519 10.6914 6.06519 10.9244C6.06519 11.1574 6.25407 11.3463 6.48706 11.3463ZM9.29956 9.04513C10.1908 9.04513 10.9391 9.66878 11.1311 10.5025H7.46803C7.66004 9.66878 8.40837 9.04513 9.29956 9.04513ZM6.65066 12.486C6.41768 12.486 6.22879 12.6749 6.22879 12.9079C6.22879 13.1409 6.41768 13.3298 6.65066 13.3298H8.67567C8.90865 13.3298 9.09754 13.1409 9.09754 12.9079C9.09754 12.6749 8.90865 12.486 8.67567 12.486H6.65066ZM12.0066 14.1735H6.59253C6.35954 14.1735 6.17065 14.3624 6.17065 14.5954C6.17065 14.8284 6.35954 15.0173 6.59253 15.0173H12.0066C12.2396 15.0173 12.4285 14.8284 12.4285 14.5954C12.4285 14.3624 12.2396 14.1735 12.0066 14.1735Z" fill="white"/>
</svg>
