<svg width="19" height="19" viewBox="0 0 19 19" fill="none" xmlns="http://www.w3.org/2000/svg">
<g clip-path="url(#clip0_1687_45)">
<path d="M12.0121 0.274889C12.673 0.464733 13.1828 0.98153 13.3867 1.67059C13.4781 1.96942 13.471 2.44403 13.3726 2.75692C13.1652 3.4284 12.6273 3.95223 11.9593 4.12801C11.5164 4.24755 10.8589 4.15965 10.4617 3.93114C10.075 3.70965 9.74448 3.3159 9.56519 2.86239C9.49487 2.67958 9.48433 2.58817 9.48081 2.19442C9.48081 1.76903 9.48784 1.71981 9.58276 1.4913C9.8394 0.865514 10.3316 0.422545 10.9574 0.257311C11.2035 0.190514 11.7519 0.201061 12.0121 0.274889Z" fill="white"/>
<path d="M6.61645 4.41621C7.74497 4.49355 7.87856 4.50762 8.02271 4.58144C8.24771 4.69394 8.33911 4.86621 8.33911 5.18613C8.33911 5.46738 8.20903 7.40449 8.17739 7.59082C8.13521 7.84043 7.95942 8.03027 7.71333 8.08652C7.57622 8.11465 4.9852 7.95644 4.7813 7.90371C4.48247 7.82637 4.31724 7.5873 4.32427 7.23222C4.3313 6.77871 4.47544 4.86621 4.5106 4.75371C4.59849 4.47949 4.84458 4.32129 5.17505 4.3248C5.28052 4.32832 5.93091 4.36699 6.61645 4.41621Z" fill="white"/>
<path d="M11.1019 4.84863C12.6558 4.92246 12.6804 4.92598 12.8632 5.20723L12.9617 5.35488L12.9828 9.15176C13.0039 13.142 13.032 13.9682 13.1586 14.4393C13.25 14.7803 13.2746 14.8295 13.9918 15.9932C14.6668 17.0865 14.7265 17.2166 14.6632 17.5119C14.5894 17.8564 14.0867 18.208 13.6718 18.208C13.4398 18.208 13.2218 18.1236 13.0918 17.9865C12.9617 17.8459 11.7066 15.7752 11.6046 15.5326C11.4535 15.1635 11.4078 14.9174 11.225 13.4865C11.13 12.7553 11.0457 12.1471 11.0316 12.1365C11.0175 12.1225 10.9367 12.1119 10.8488 12.1119L10.6871 12.1084L9.89957 13.3213C9.05934 14.6115 8.94332 14.8084 8.85192 15.1143C8.81676 15.2303 8.74996 15.7787 8.6902 16.4678C8.63043 17.1041 8.57066 17.6842 8.54957 17.751C8.48277 17.9865 8.23317 18.1729 7.97652 18.1729C7.84996 18.1729 7.55113 18.0814 7.35074 17.9795C7.10113 17.8529 6.93238 17.6314 6.86559 17.3326C6.82692 17.1533 7.00621 14.9912 7.0941 14.5869C7.18199 14.1861 7.24527 14.035 8.1066 12.2279L8.90113 10.5545L8.90113 10.2873L8.90113 10.0201L8.71481 10.0025C8.61637 9.99199 8.05035 9.96738 7.45973 9.94629C6.8691 9.92168 6.33121 9.89004 6.26441 9.87246C6.12027 9.8373 5.97262 9.70723 5.89176 9.55254C5.80035 9.37676 5.83902 9.06738 5.97262 8.90215C6.18707 8.63144 6.20113 8.63144 7.28395 8.61035C8.13121 8.59629 8.26481 8.58574 8.34918 8.52949C8.40192 8.49785 8.45113 8.43457 8.46168 8.38887C8.47223 8.34668 8.58473 7.6541 8.70777 6.85254C8.83434 6.05098 8.95387 5.33379 8.97496 5.26348C9.01363 5.10879 9.15074 4.93652 9.28785 4.86621C9.44606 4.78535 9.67457 4.78184 11.1019 4.84863Z" fill="white"/>
</g>
<defs>
<clipPath id="clip0_1687_45">
<rect width="18" height="18" fill="white" transform="matrix(-1 0 0 1 18.4993 0.208008)"/>
</clipPath>
</defs>
</svg>
