<svg width="192" height="192" viewBox="0 0 192 192" fill="none" xmlns="http://www.w3.org/2000/svg">
<path d="M192 146.842H0V146.938H192V146.842Z" fill="#EBEBEB"/>
<path d="M91.0082 129.715H16.8617C16.2808 129.714 15.7241 129.483 15.3137 129.072C14.9033 128.661 14.6729 128.103 14.6729 127.523V23.2934C14.6779 22.7159 14.9106 22.1637 15.3204 21.7568C15.7303 21.3498 16.2841 21.121 16.8617 21.12H91.0082C91.5897 21.12 92.1474 21.351 92.5586 21.7622C92.9698 22.1734 93.2009 22.7311 93.2009 23.3126V127.523C93.2009 128.104 92.9698 128.662 92.5586 129.073C92.1474 129.484 91.5897 129.715 91.0082 129.715ZM16.8617 21.1968C16.3063 21.1978 15.774 21.4192 15.3816 21.8122C14.9892 22.2053 14.7689 22.738 14.7689 23.2934V127.523C14.7689 128.078 14.9892 128.611 15.3816 129.004C15.774 129.397 16.3063 129.618 16.8617 129.619H91.0082C91.564 129.618 92.0967 129.397 92.4896 129.004C92.8826 128.611 93.1038 128.078 93.1049 127.523V23.2934C93.1038 22.7377 92.8826 22.205 92.4896 21.812C92.0967 21.419 91.564 21.1978 91.0082 21.1968H16.8617Z" fill="#EBEBEB"/>
<path d="M174.071 129.715H99.9207C99.3395 129.714 98.7823 129.483 98.3714 129.072C97.9604 128.661 97.729 128.104 97.728 127.523V23.2934C97.7341 22.7156 97.9677 22.1634 98.3781 21.7565C98.7885 21.3497 99.3428 21.121 99.9207 21.12H174.071C174.648 21.122 175.201 21.3513 175.61 21.7581C176.019 22.1649 176.251 22.7166 176.256 23.2934V127.523C176.256 128.103 176.026 128.659 175.617 129.07C175.207 129.481 174.651 129.713 174.071 129.715ZM99.9207 21.1968C99.3649 21.1978 98.8322 21.419 98.4392 21.812C98.0463 22.205 97.825 22.7377 97.824 23.2934V127.523C97.825 128.078 98.0463 128.611 98.4392 129.004C98.8322 129.397 99.3649 129.618 99.9207 129.619H174.071C174.627 129.618 175.16 129.397 175.552 129.004C175.945 128.611 176.167 128.078 176.168 127.523V23.2934C176.167 22.7377 175.945 22.205 175.552 21.812C175.16 21.419 174.627 21.1978 174.071 21.1968H99.9207Z" fill="#EBEBEB"/>
<path d="M172.761 153.02H162.777V153.116H172.761V153.02Z" fill="#EBEBEB"/>
<path d="M136.715 154.065H119.424V154.161H136.715V154.065Z" fill="#EBEBEB"/>
<path d="M162.394 149.457H139.05V149.553H162.394V149.457Z" fill="#EBEBEB"/>
<path d="M27.5289 150.102H20.1445V150.198H27.5289V150.102Z" fill="#EBEBEB"/>
<path d="M52.1816 150.102H30.9502V150.198H52.1816V150.102Z" fill="#EBEBEB"/>
<path d="M93.7498 151.722H65.1533V151.818H93.7498V151.722Z" fill="#EBEBEB"/>
<path d="M145.379 144.875H148.451V88.0243H145.379V144.875Z" fill="#F0F0F0"/>
<path d="M130.637 146.834H147.644V144.872H130.637V146.834Z" fill="#F0F0F0"/>
<path d="M145.382 88.0205H129.823V144.872H145.382V88.0205Z" fill="#F5F5F5"/>
<path d="M143.723 117.627H131.481V127.78H143.723V117.627Z" fill="#F0F0F0"/>
<path d="M143.723 130.913H131.481V141.066H143.723V130.913Z" fill="#F0F0F0"/>
<path d="M135.97 123.398H139.23C139.481 123.398 139.684 123.196 139.684 122.945V122.458C139.684 122.207 139.481 122.005 139.23 122.005H135.97C135.72 122.005 135.517 122.207 135.517 122.458V122.945C135.517 123.196 135.72 123.398 135.97 123.398Z" fill="#F5F5F5"/>
<path d="M135.97 136.685H139.23C139.481 136.685 139.684 136.482 139.684 136.232V135.744C139.684 135.494 139.481 135.291 139.23 135.291H135.97C135.72 135.291 135.517 135.494 135.517 135.744V136.232C135.517 136.482 135.72 136.685 135.97 136.685Z" fill="#F5F5F5"/>
<path d="M143.723 91.1577H131.481V101.311H143.723V91.1577Z" fill="#F0F0F0"/>
<path d="M143.723 104.337H131.481V114.49H143.723V104.337Z" fill="#F0F0F0"/>
<path d="M135.97 96.9293H139.23C139.481 96.9293 139.684 96.7264 139.684 96.4762V95.9885C139.684 95.7383 139.481 95.5354 139.23 95.5354H135.97C135.72 95.5354 135.517 95.7383 135.517 95.9885V96.4762C135.517 96.7264 135.72 96.9293 135.97 96.9293Z" fill="#F5F5F5"/>
<path d="M135.97 110.112H139.23C139.481 110.112 139.684 109.909 139.684 109.659V109.171C139.684 108.921 139.481 108.718 139.23 108.718H135.97C135.72 108.718 135.517 108.921 135.517 109.171V109.659C135.517 109.909 135.72 110.112 135.97 110.112Z" fill="#F5F5F5"/>
<path d="M162.409 144.875H171.625V88.0243H162.409V144.875Z" fill="#F0F0F0"/>
<path d="M147.655 146.834H170.676V144.872H147.655V146.834Z" fill="#F0F0F0"/>
<path d="M162.409 88.0205H146.849V144.872H162.409V88.0205Z" fill="#F5F5F5"/>
<path d="M160.75 117.627H148.508V127.78H160.75V117.627Z" fill="#F0F0F0"/>
<path d="M160.75 130.913H148.508V141.066H160.75V130.913Z" fill="#F0F0F0"/>
<path d="M152.997 123.398H156.257C156.508 123.398 156.71 123.196 156.71 122.945V122.458C156.71 122.207 156.508 122.005 156.257 122.005H152.997C152.747 122.005 152.544 122.207 152.544 122.458V122.945C152.544 123.196 152.747 123.398 152.997 123.398Z" fill="#F5F5F5"/>
<path d="M152.997 136.685H156.257C156.508 136.685 156.71 136.482 156.71 136.232V135.744C156.71 135.494 156.508 135.291 156.257 135.291H152.997C152.747 135.291 152.544 135.494 152.544 135.744V136.232C152.544 136.482 152.747 136.685 152.997 136.685Z" fill="#F5F5F5"/>
<path d="M160.75 91.1577H148.508V101.311H160.75V91.1577Z" fill="#F0F0F0"/>
<path d="M160.75 104.337H148.508V114.49H160.75V104.337Z" fill="#F0F0F0"/>
<path d="M152.997 96.9293H156.257C156.508 96.9293 156.71 96.7264 156.71 96.4762V95.9885C156.71 95.7383 156.508 95.5354 156.257 95.5354H152.997C152.747 95.5354 152.544 95.7383 152.544 95.9885V96.4762C152.544 96.7264 152.747 96.9293 152.997 96.9293Z" fill="#F5F5F5"/>
<path d="M152.997 110.112H156.257C156.508 110.112 156.71 109.909 156.71 109.659V109.171C156.71 108.921 156.508 108.718 156.257 108.718H152.997C152.747 108.718 152.544 108.921 152.544 109.171V109.659C152.544 109.909 152.747 110.112 152.997 110.112Z" fill="#F5F5F5"/>
<path d="M112.37 76.1549H164.099V30.7431L112.37 30.7431V76.1549Z" fill="#E6E6E6"/>
<path d="M106.825 28.9767H167.447C167.584 28.9767 167.715 29.0309 167.811 29.1274C167.908 29.2239 167.962 29.3548 167.962 29.4912C167.961 29.627 167.906 29.7569 167.81 29.8526C167.713 29.9483 167.583 30.002 167.447 30.002H106.825C106.69 30.001 106.561 29.9468 106.465 29.8513C106.37 29.7557 106.315 29.6264 106.314 29.4912C106.314 29.3554 106.368 29.2251 106.464 29.1287C106.559 29.0324 106.689 28.9777 106.825 28.9767Z" fill="#E6E6E6"/>
<path d="M110.177 76.1549H163.077V30.7431L110.177 30.7431V76.1549Z" fill="#F0F0F0"/>
<path d="M112.37 76.1549H164.099V77.6103H110.857L112.37 76.1549Z" fill="#E6E6E6"/>
<path d="M106.518 76.1549H159.418L157.905 77.6103H105.005L106.518 76.1549Z" fill="#F0F0F0"/>
<path d="M160.001 73.0829V33.8151H113.249V73.0829H160.001Z" fill="#FAFAFA"/>
<path d="M149.388 73.0829L131.351 33.8151H122.838L140.874 73.0829H149.388Z" fill="white"/>
<path d="M139.047 73.0829L121.01 33.8151H117.688L135.725 73.0829H139.047Z" fill="white"/>
<path d="M113.637 73.0829V33.8151H113.246V73.0829H113.637Z" fill="#E6E6E6"/>
<g opacity="0.4">
<path d="M159.963 65.5297H165.251V28.0551H159.963V65.5297Z" fill="#F0F0F0"/>
<path d="M157.905 65.5297H162.025V28.0551H157.905V65.5297Z" fill="#E6E6E6"/>
<path d="M154.679 65.5297H159.967V28.0551H154.679V65.5297Z" fill="#F0F0F0"/>
<path d="M152.617 65.5297H156.737V28.0551H152.617V65.5297Z" fill="#E6E6E6"/>
<path d="M149.388 65.5297H154.675V28.0551H149.388V65.5297Z" fill="#F0F0F0"/>
</g>
<g opacity="0.4">
<path d="M115.216 65.5297H118.265V28.0551H115.216V65.5297Z" fill="#F0F0F0"/>
<path d="M114.029 65.5297H116.402V28.0551H114.029V65.5297Z" fill="#E6E6E6"/>
<path d="M112.167 65.5297H115.216V28.0551H112.167V65.5297Z" fill="#F0F0F0"/>
<path d="M110.984 65.5297H113.357V28.0551H110.984V65.5297Z" fill="#E6E6E6"/>
<path d="M109.118 65.5297H112.167V28.0551H109.118V65.5297Z" fill="#F0F0F0"/>
</g>
<path d="M63.0605 58.2527H70.3796L69.5156 39.6902H63.0605V58.2527Z" fill="#F5F5F5"/>
<path d="M74.5151 59.255L76.0934 67.4995H74.5151L64.8345 59.255H74.5151Z" fill="#F5F5F5"/>
<path d="M76.0932 59.255V67.4995L66.4126 59.255H76.0932Z" fill="#E6E6E6"/>
<path d="M36.5493 59.255L38.1275 67.4995H36.5493L26.8687 59.255H36.5493Z" fill="#F5F5F5"/>
<path d="M38.1274 59.255V67.4995L28.4468 59.255H38.1274Z" fill="#E6E6E6"/>
<path d="M83.2012 58.2797H72.6719V59.4701H83.2012V58.2797Z" fill="#E6E6E6"/>
<path d="M20.325 59.4701L72.6719 59.4701V58.2797L20.325 58.2797V59.4701Z" fill="#F5F5F5"/>
<path d="M52.3047 58.2528H68.018L69.961 35.7581H54.2477L52.3047 58.2528Z" fill="#E6E6E6"/>
<path d="M51.4907 58.2528H67.204L69.147 35.7581H53.4338L51.4907 58.2528Z" fill="#F0F0F0"/>
<path d="M65.8866 55.7606L67.6646 38.2463H54.7545L52.9766 55.7606H65.8866Z" fill="white"/>
<path d="M45.2695 58.2528H50.3115L49.7163 45.4695H45.2695V58.2528Z" fill="#E0E0E0"/>
<path d="M37.8662 58.2528H48.6835L50.0237 42.7622H39.2025L37.8662 58.2528Z" fill="#F0F0F0"/>
<path d="M37.3057 58.2528H48.1268L49.4631 42.7622H38.642L37.3057 58.2528Z" fill="#F5F5F5"/>
<path d="M47.2167 56.5364L48.4379 44.4788H39.5521L38.3271 56.5364H47.2167Z" fill="#E0E0E0"/>
<path d="M100.746 90.793C100.782 91.2223 100.69 91.6526 100.481 92.0294C100.272 92.4062 99.9563 92.7126 99.5732 92.9098C99.1902 93.107 98.7573 93.1861 98.3292 93.1371C97.9012 93.0882 97.4973 92.9133 97.1687 92.6347C96.8401 92.3561 96.6015 91.9863 96.4832 91.5721C96.3648 91.1578 96.372 90.7178 96.5039 90.3076C96.6357 89.8975 96.8863 89.5357 97.2239 89.268C97.5614 89.0003 97.9708 88.8388 98.4002 88.8039C98.6849 88.7802 98.9715 88.8129 99.2435 88.9001C99.5156 88.9873 99.7678 89.1272 99.9857 89.312C100.204 89.4967 100.383 89.7226 100.513 89.9768C100.644 90.2309 100.723 90.5082 100.746 90.793Z" fill="#E0E0E0"/>
<path d="M104.79 91.9296C104.826 92.359 104.733 92.7893 104.525 93.1661C104.316 93.5429 104 93.8493 103.617 94.0465C103.234 94.2437 102.801 94.3228 102.373 94.2738C101.945 94.2248 101.541 94.05 101.212 93.7714C100.884 93.4928 100.645 93.123 100.527 92.7087C100.408 92.2945 100.415 91.8545 100.547 91.4443C100.679 91.0342 100.93 90.6723 101.267 90.4047C101.605 90.137 102.014 89.9754 102.444 89.9405C103.018 89.8938 103.588 90.077 104.028 90.4499C104.468 90.8228 104.742 91.355 104.79 91.9296Z" fill="#E0E0E0"/>
<path d="M107.712 90.624C107.747 91.0532 107.654 91.4832 107.445 91.8595C107.235 92.2359 106.919 92.5417 106.536 92.7383C106.153 92.9349 105.72 93.0135 105.292 92.964C104.864 92.9146 104.461 92.7394 104.132 92.4606C103.804 92.1817 103.566 91.8119 103.448 91.3977C103.33 90.9835 103.338 90.5436 103.47 90.1337C103.602 89.7237 103.852 89.3622 104.19 89.0947C104.527 88.8272 104.937 88.6658 105.366 88.631C105.941 88.5853 106.511 88.7694 106.951 89.1429C107.39 89.5164 107.664 90.049 107.712 90.624Z" fill="#E0E0E0"/>
<path d="M110.796 91.438C110.83 91.8662 110.736 92.295 110.527 92.6701C110.318 93.0453 110.002 93.3499 109.619 93.5457C109.237 93.7415 108.805 93.8195 108.379 93.77C107.952 93.7205 107.549 93.5457 107.222 93.2676C106.895 92.9895 106.657 92.6206 106.539 92.2075C106.421 91.7944 106.428 91.3556 106.56 90.9466C106.691 90.5376 106.941 90.1767 107.277 89.9094C107.613 89.6422 108.021 89.4806 108.449 89.4451C108.734 89.4214 109.021 89.4543 109.293 89.5417C109.566 89.6291 109.818 89.7694 110.036 89.9546C110.254 90.1397 110.433 90.3661 110.564 90.6206C110.694 90.8752 110.773 91.1529 110.796 91.438Z" fill="#E0E0E0"/>
<path d="M113.564 91.776C113.564 91.776 113.311 97.8202 103.603 97.8202C93.8956 97.8202 93.6191 91.776 93.6191 91.776H113.564Z" fill="#F0F0F0"/>
<path d="M22.994 146.842H26.5229L26.5229 97.8316H22.994L22.994 146.842Z" fill="#E6E6E6"/>
<path d="M22.0529 146.842H24.1304L24.1304 97.8316H22.0529L22.0529 146.842Z" fill="#F0F0F0"/>
<path d="M71.5048 97.8317H21.4082V101.507H71.5048V97.8317Z" fill="#F0F0F0"/>
<path d="M118.948 146.842H122.477V97.8316H118.948V146.842Z" fill="#E6E6E6"/>
<path d="M118.287 146.842H120.365V97.8316H118.287V146.842Z" fill="#F0F0F0"/>
<path d="M123.106 97.8317H73.0098V101.507H123.106V97.8317Z" fill="#E6E6E6"/>
<path d="M71.8001 146.842H75.3291V97.8316H71.8001V146.842Z" fill="#E6E6E6"/>
<path d="M70.8596 146.842H72.937V97.8316H70.8596V146.842Z" fill="#F0F0F0"/>
<path d="M83.3819 81.5309H57.2277L52.5659 96.9754H78.724L83.3819 81.5309Z" fill="#E6E6E6"/>
<path d="M78.7237 96.9753L78.62 97.8317H52.4619L52.5656 96.9753H78.7237Z" fill="#E6E6E6"/>
<path d="M82.5792 81.5309H56.4211L51.7632 96.9754H77.9174L82.5792 81.5309Z" fill="#F0F0F0"/>
<path d="M77.4068 96.2726L81.6384 82.2374H56.9357L52.7002 96.2726H77.4068Z" fill="white"/>
<path d="M71.1052 96.9753L70.9977 97.8317H42.1938L42.2975 96.9753H71.1052Z" fill="#F0F0F0"/>
<path d="M96.0001 164.183C137.12 164.183 170.454 162.237 170.454 159.836C170.454 157.435 137.12 155.489 96.0001 155.489C54.8805 155.489 21.5464 157.435 21.5464 159.836C21.5464 162.237 54.8805 164.183 96.0001 164.183Z" fill="#F5F5F5"/>
<path d="M144.979 41.9137H100.785C99.2689 41.9386 97.8168 42.5276 96.712 43.5657C95.6071 44.6038 94.9289 46.0164 94.8097 47.5277L87.9361 153.343C87.8801 154.063 87.9747 154.788 88.2138 155.47C88.453 156.151 88.8315 156.776 89.3252 157.304C89.819 157.832 90.4172 158.251 91.0818 158.535C91.7463 158.819 92.4627 158.961 93.1853 158.953H137.395C138.911 158.929 140.363 158.341 141.468 157.303C142.573 156.266 143.251 154.854 143.37 153.343L148.301 77.2877C148.51 77.2146 148.694 77.0826 148.83 76.9076C148.967 76.7325 149.049 76.5218 149.069 76.3008L149.952 62.6919C149.967 62.4805 149.914 62.2698 149.799 62.0917C149.684 61.9136 149.514 61.7779 149.315 61.705L150.232 47.5277C150.288 46.8067 150.194 46.0819 149.954 45.3995C149.715 44.7171 149.336 44.092 148.842 43.5639C148.348 43.0359 147.749 42.6164 147.084 42.3323C146.419 42.0482 145.702 41.9056 144.979 41.9137Z" fill="#55B948"/>
<path d="M91.2307 69.312H92.0985C92.3671 69.3072 92.6242 69.2028 92.8201 69.019C93.0159 68.8352 93.1365 68.5852 93.1584 68.3175L93.5424 62.6343C93.552 62.5064 93.5349 62.3779 93.4922 62.257C93.4495 62.1361 93.3822 62.0254 93.2944 61.9319C93.2067 61.8384 93.1005 61.7641 92.9825 61.7138C92.8646 61.6635 92.7375 61.6383 92.6093 61.6397H91.7453C91.4764 61.6437 91.2188 61.7478 91.0228 61.9318C90.8267 62.1157 90.7064 62.3663 90.6854 62.6343L90.3014 68.3175C90.2919 68.445 90.3088 68.5731 90.3513 68.6938C90.3937 68.8144 90.4607 68.925 90.5481 69.0184C90.6354 69.1119 90.7411 69.1862 90.8586 69.2367C90.9761 69.2873 91.1028 69.3129 91.2307 69.312Z" fill="#55B948"/>
<path d="M90.574 79.4573H91.438C91.7076 79.4525 91.9657 79.3476 92.1623 79.1631C92.3589 78.9786 92.4798 78.7276 92.5017 78.4589L92.8857 72.7795C92.8953 72.6517 92.8782 72.5232 92.8355 72.4023C92.7928 72.2814 92.7255 72.1707 92.6378 72.0771C92.55 71.9836 92.4438 71.9094 92.3259 71.8591C92.2079 71.8088 92.0808 71.7835 91.9526 71.785H91.0886C90.8194 71.7888 90.5613 71.8929 90.3646 72.0768C90.1679 72.2606 90.0468 72.5112 90.0249 72.7795L89.6409 78.4589C89.6302 78.5872 89.6464 78.7163 89.6886 78.838C89.7308 78.9596 89.7981 79.071 89.886 79.1651C89.9739 79.2592 90.0805 79.3338 90.1991 79.3841C90.3176 79.4344 90.4453 79.4593 90.574 79.4573Z" fill="#55B948"/>
<path d="M135.045 158.953H90.8504C90.1278 158.961 89.4114 158.819 88.7468 158.535C88.0822 158.251 87.484 157.832 86.9903 157.304C86.4965 156.776 86.118 156.152 85.8789 155.47C85.6397 154.788 85.5451 154.063 85.6011 153.343L92.4593 47.5278C92.5795 46.0162 93.2585 44.6035 94.364 43.5655C95.4694 42.5275 96.922 41.9386 98.4382 41.9137H142.629C143.352 41.9062 144.068 42.0492 144.733 42.3336C145.397 42.6179 145.996 43.0374 146.489 43.5654C146.983 44.0934 147.361 44.7184 147.6 45.4005C147.84 46.0827 147.934 46.8071 147.878 47.5278L141.02 153.343C140.901 154.854 140.222 156.266 139.117 157.303C138.012 158.341 136.56 158.929 135.045 158.953Z" fill="#263238"/>
<path opacity="0.2" d="M115.951 154.454C117.5 152.955 117.616 150.564 116.212 149.113C114.808 147.663 112.414 147.702 110.866 149.2C109.318 150.699 109.201 153.09 110.606 154.541C112.01 155.991 114.403 155.952 115.951 154.454Z" fill="white"/>
<path d="M139.039 145.217H88.7999C88.6288 145.217 88.4596 145.182 88.3027 145.114C88.1457 145.046 88.0044 144.946 87.8875 144.821C87.7705 144.696 87.6804 144.549 87.6227 144.388C87.565 144.227 87.5409 144.056 87.5519 143.885L93.431 53.138C93.4569 52.8245 93.5996 52.5323 93.8306 52.319C94.0617 52.1056 94.3645 51.9868 94.679 51.986H144.922C145.093 51.9861 145.262 52.0214 145.419 52.0895C145.576 52.1576 145.717 52.2572 145.834 52.382C145.951 52.5069 146.041 52.6544 146.099 52.8155C146.156 52.9765 146.181 53.1477 146.17 53.3184L140.287 144.046C140.266 144.363 140.126 144.661 139.894 144.878C139.662 145.096 139.356 145.217 139.039 145.217Z" fill="white"/>
<path opacity="0.2" d="M125.021 109.45C130.641 104.01 131.064 95.3308 125.966 90.0647C120.868 84.7986 112.18 84.9396 106.56 90.3797C100.94 95.8198 100.517 104.499 105.615 109.765C110.713 115.031 119.401 114.89 125.021 109.45Z" fill="#55B948"/>
<path opacity="0.2" d="M114.432 121.06C102.77 121.06 93.8954 111.571 94.6519 99.9091C95.4084 88.2471 105.508 78.7584 117.174 78.7584C128.839 78.7584 137.71 88.2471 136.953 99.9091C136.197 111.571 126.082 121.06 114.432 121.06ZM117.12 79.1424C105.669 79.1424 95.7502 88.4583 95.009 99.9091C94.2679 111.36 102.977 120.676 114.428 120.676C125.879 120.676 135.798 111.36 136.542 99.9091C137.287 88.4583 128.586 79.1424 117.12 79.1424Z" fill="#55B948"/>
<path d="M112.512 106.556L111.36 104.333C108.864 99.4906 103.115 95.1629 101.107 93.9034L103.004 91.0656C105.381 92.5556 110.131 96.2458 113.111 100.631C118.621 94.1031 126.409 87.3792 136.834 80.1255L138.612 82.8135C127.476 90.5626 119.462 97.6474 114.132 104.475L112.512 106.556Z" fill="#55B948"/>
<path opacity="0.2" d="M111.967 47.9542C112.594 47.348 112.64 46.3797 112.07 45.7915C111.501 45.2034 110.532 45.218 109.905 45.8243C109.279 46.4305 109.233 47.3988 109.802 47.987C110.372 48.5751 111.341 48.5605 111.967 47.9542Z" fill="white"/>
<path opacity="0.2" d="M116.317 45.3581H129.024C129.221 45.3558 129.417 45.3948 129.598 45.4727C129.78 45.5505 129.943 45.6654 130.078 45.81C130.212 45.9547 130.315 46.1258 130.38 46.3125C130.444 46.4992 130.469 46.6973 130.452 46.8941C130.421 47.3069 130.236 47.6931 129.935 47.9771C129.634 48.2612 129.238 48.4227 128.824 48.4301H116.121C115.924 48.4318 115.728 48.3924 115.547 48.3144C115.365 48.2364 115.202 48.1216 115.067 47.9771C114.933 47.8327 114.829 47.6618 114.764 47.4754C114.699 47.289 114.673 47.091 114.689 46.8941C114.72 46.4814 114.905 46.0952 115.206 45.8111C115.507 45.5271 115.903 45.3655 116.317 45.3581Z" fill="white"/>
<path d="M69.0204 73.7281C68.3714 74.3924 67.6764 75.1258 67.0351 75.8554C66.3938 76.585 65.7525 77.3338 65.1496 78.1018C64.5468 78.8698 63.9976 79.6378 63.4293 80.4481L63.0453 81.051L62.6613 81.6615C62.5346 81.865 62.4194 82.0724 62.308 82.2836L62.0008 82.8481C61.8756 83.1709 61.8042 83.5121 61.7896 83.858C61.7589 84.3029 61.7589 84.7494 61.7896 85.1943C61.8649 86.1543 61.9931 87.1093 62.1736 88.0551C62.3426 89.0228 62.5576 89.9943 62.7842 90.962C63.0108 91.9297 63.2604 92.9089 63.5138 93.8612L62.093 94.395C61.2199 92.5168 60.4883 90.576 59.9042 88.5889C59.6076 87.5647 59.3805 86.5217 59.2245 85.467C59.1469 84.9045 59.1071 84.3375 59.1055 83.7697C59.0965 83.1007 59.2097 82.4357 59.4396 81.8074C59.5279 81.5924 59.574 81.5079 59.6354 81.3774L59.812 81.0126C59.9272 80.7706 60.0463 80.5287 60.196 80.2945L60.58 79.5879L60.9871 78.9006C61.5295 77.9951 62.1204 77.1196 62.7573 76.2778C63.3871 75.4369 64.0399 74.619 64.7272 73.8279C65.4146 73.0369 66.1096 72.2919 66.9084 71.5239L69.0204 73.7281Z" fill="#B55B52"/>
<path d="M69.1853 69.1201C67.1041 69.2123 65.1265 72.6683 65.1265 72.6683L67.8759 78.2785C67.8759 78.2785 71.6007 75.1758 71.6468 72.1345C71.6775 70.1415 71.2321 69.0241 69.1853 69.1201Z" fill="#55B948"/>
<path opacity="0.7" d="M69.1853 69.1201C67.1041 69.2123 65.1265 72.6683 65.1265 72.6683L67.8759 78.2785C67.8759 78.2785 71.6007 75.1758 71.6468 72.1345C71.6775 70.1415 71.2321 69.0241 69.1853 69.1201Z" fill="white"/>
<path opacity="0.2" d="M69.6807 73.1521C69.0739 74.0699 68.7821 76.4507 68.6899 77.5105C69.6061 76.6195 70.3829 75.5955 70.9939 74.4731C70.5831 73.4478 70.08 72.5492 69.6807 73.1521Z" fill="black"/>
<path d="M63.1028 93.2775L65.6333 94.0455L63.9476 95.7504C63.9476 95.7504 62.1236 95.1859 61.8701 93.9456L63.1028 93.2775Z" fill="#B55B52"/>
<path d="M67.1657 95.977L66.7394 97.609L63.9478 95.7351L65.6335 94.0302L67.1657 95.977Z" fill="#B55B52"/>
<path d="M83.8158 62.4576C83.7352 62.6842 83.7928 62.9146 83.9425 62.9683C84.0923 63.0221 84.2766 62.8877 84.3534 62.6611C84.4302 62.4346 84.3764 62.2003 84.2267 62.1466C84.0769 62.0928 83.8965 62.2272 83.8158 62.4576Z" fill="#263238"/>
<path d="M84.1577 62.1351L84.7606 62.1851C84.7606 62.1851 84.3305 62.5038 84.1577 62.1351Z" fill="#263238"/>
<path d="M83.9313 62.7495C83.954 63.3469 84.0574 63.9385 84.2385 64.5082C84.092 64.5466 83.9388 64.5527 83.7897 64.5262C83.6405 64.4997 83.4989 64.4411 83.3745 64.3546L83.9313 62.7495Z" fill="#A02724"/>
<path d="M84.5607 61.5706C84.5334 61.5668 84.5078 61.5549 84.4872 61.5364C84.4667 61.5179 84.4522 61.4937 84.4455 61.4669C84.4034 61.2933 84.3225 61.1315 84.2087 60.9938C84.0949 60.8561 83.9514 60.7461 83.7889 60.672C83.7539 60.659 83.7255 60.6328 83.7097 60.599C83.6939 60.5653 83.692 60.5267 83.7044 60.4915C83.7104 60.4739 83.7199 60.4577 83.7323 60.4438C83.7447 60.43 83.7598 60.4188 83.7767 60.4109C83.7935 60.403 83.8118 60.3986 83.8304 60.3979C83.849 60.3973 83.8675 60.4004 83.8849 60.407C84.0939 60.4978 84.2786 60.6366 84.424 60.812C84.5695 60.9875 84.6715 61.1947 84.722 61.417C84.7266 61.4351 84.7276 61.454 84.7248 61.4725C84.7221 61.4911 84.7157 61.5089 84.7061 61.5249C84.6965 61.541 84.6837 61.555 84.6687 61.5661C84.6536 61.5772 84.6365 61.5853 84.6183 61.5898L84.5607 61.5706Z" fill="#263238"/>
<path d="M75.9286 63.4215C75.9823 65.2378 75.798 68.5057 74.3926 69.4311C74.3926 69.4311 74.5807 71.2974 77.8486 71.931C81.439 72.626 79.8569 70.491 79.8569 70.491C77.9753 69.6462 78.2633 68.21 78.8278 66.9197L75.9286 63.4215Z" fill="#B55B52"/>
<path d="M86.6001 75.8516C86.9227 76.7309 87.2913 77.6832 87.683 78.5856C88.0747 79.488 88.451 80.402 88.9079 81.2736C89.3649 82.1453 89.8103 83.0208 90.2942 83.8695C90.5438 84.288 90.7934 84.7066 91.0622 85.106C91.1927 85.3133 91.3271 85.513 91.4692 85.7012L91.6766 85.993L91.7803 86.1428L91.834 86.2157L91.8686 86.2541C92.1183 86.5382 92.405 86.7875 92.7211 86.9952C93.1017 87.2552 93.4965 87.4936 93.9038 87.7095C94.7447 88.1626 95.6472 88.5735 96.5649 88.9613C97.4827 89.3492 98.4196 89.7293 99.3681 90.0634C100.317 90.3975 101.288 90.7508 102.221 91.0772L101.864 92.5556C99.8062 92.2115 97.7731 91.7331 95.7777 91.1232C94.7561 90.8117 93.7535 90.4412 92.7748 90.0135C92.2617 89.7857 91.7617 89.5293 91.2772 89.2455C90.7152 88.9251 90.2061 88.5197 89.7681 88.0436L89.6759 87.9399L89.6107 87.8592L89.4839 87.7018L89.2305 87.3792C89.0577 87.168 88.8926 86.953 88.739 86.7341C88.4126 86.3002 88.1131 85.8548 87.8174 85.4055C87.2347 84.5143 86.6977 83.594 86.2084 82.6484C85.7207 81.7076 85.2599 80.7591 84.8375 79.7914C84.4151 78.8237 84.035 77.8714 83.6855 76.8116L86.6001 75.8516Z" fill="#B55B52"/>
<path d="M101.714 91.0695L103.98 90.194L103.868 92.809C103.868 92.809 102.033 93.2967 101.18 92.3712L101.714 91.0695Z" fill="#B55B52"/>
<path d="M105.688 91.0925L106.464 92.7629L103.868 92.809L103.98 90.194L105.688 91.0925Z" fill="#B55B52"/>
<path d="M68.1143 156.63L71.1133 156.852L72.0042 149.967L69.0051 149.745L68.1143 156.63Z" fill="#B55B52"/>
<path d="M44.3599 141.055L46.3183 143.382L52.132 139.646L50.1736 137.318L44.3599 141.055Z" fill="#B55B52"/>
<path d="M47.2322 143.082L45.654 140.049C45.6288 139.996 45.5852 139.954 45.5314 139.932C45.4776 139.909 45.4174 139.907 45.3621 139.926L42.8546 140.794C42.7917 140.819 42.7348 140.857 42.6878 140.906C42.6408 140.955 42.6046 141.013 42.5818 141.077C42.5589 141.141 42.5499 141.209 42.5552 141.277C42.5605 141.344 42.5801 141.41 42.6127 141.47C43.181 142.518 43.5074 143.006 44.1986 144.33C44.6287 145.148 45.1701 146.392 45.7576 147.525C46.3452 148.658 47.4664 148.155 47.3205 147.629C46.66 145.283 47.0978 144.634 47.3205 143.616C47.3522 143.433 47.321 143.245 47.2322 143.082Z" fill="#263238"/>
<path d="M71.3011 156.426H67.9296C67.8716 156.426 67.8152 156.446 67.7708 156.483C67.7264 156.52 67.6969 156.573 67.6877 156.63L67.2346 159.295C67.2252 159.361 67.2302 159.429 67.2493 159.493C67.2684 159.558 67.301 159.617 67.3451 159.668C67.3892 159.718 67.4436 159.759 67.5047 159.787C67.5658 159.814 67.6321 159.829 67.6992 159.829C68.8781 159.809 69.4426 159.74 70.9248 159.74C71.8387 159.74 73.7203 159.836 74.9798 159.836C76.2393 159.836 76.3392 158.592 75.817 158.477C73.4784 157.974 72.5722 157.275 71.7965 156.611C71.6596 156.49 71.4833 156.425 71.3011 156.426Z" fill="#263238"/>
<path opacity="0.2" d="M72.0039 149.967L71.5085 153.796L68.521 153.496L69.0048 149.749L72.0039 149.967Z" fill="black"/>
<path opacity="0.2" d="M50.1735 137.318L52.1319 139.646L49.7242 141.193L47.6929 138.912L50.1735 137.318Z" fill="black"/>
<path d="M68.3521 87.3792L80.3789 89.7101C86.0621 72.9792 84.7028 72.4301 84.7028 72.4301C83.8192 71.9527 82.9075 71.5295 81.9725 71.1629L81.8074 71.1015C81.0394 70.8212 80.8781 70.7789 79.849 70.4794C78.0749 70.0608 76.4276 69.7114 74.3885 69.4234L74.0045 69.3696C73.6205 69.3236 73.2673 69.2852 72.914 69.2506C72.6759 69.2237 72.4378 69.2084 72.2113 69.193L71.4433 69.1508C70.13 69.0855 69.1892 69.1047 69.1892 69.1047C69.8496 79.5533 69.3466 82.56 68.3521 87.3792Z" fill="#55B948"/>
<path opacity="0.7" d="M68.3521 87.3792L80.3789 89.7101C86.0621 72.9792 84.7028 72.4301 84.7028 72.4301C83.8192 71.9527 82.9075 71.5295 81.9725 71.1629L81.8074 71.1015C81.0394 70.8212 80.8781 70.7789 79.849 70.4794C78.0749 70.0608 76.4276 69.7114 74.3885 69.4234L74.0045 69.3696C73.6205 69.3236 73.2673 69.2852 72.914 69.2506C72.6759 69.2237 72.4378 69.2084 72.2113 69.193L71.4433 69.1508C70.13 69.0855 69.1892 69.1047 69.1892 69.1047C69.8496 79.5533 69.3466 82.56 68.3521 87.3792Z" fill="white"/>
<path opacity="0.2" d="M82.9749 76.3355L81.8882 76.1588C81.8882 77.5911 82.4335 80.0487 82.9634 81.6116C83.4127 80.0756 83.7621 78.8123 84.0271 77.7486L82.9749 76.3355Z" fill="black"/>
<path d="M84.2843 72.2266C86.0622 72.7949 87.3563 76.3123 87.8401 77.8291L84.3841 81.888C84.3841 81.888 80.8437 76.8 81.4081 75.2218C81.9611 73.5782 83.4241 71.9462 84.2843 72.2266Z" fill="#55B948"/>
<path opacity="0.7" d="M84.2843 72.2266C86.0622 72.7949 87.3563 76.3123 87.8401 77.8291L84.3841 81.888C84.3841 81.888 80.8437 76.8 81.4081 75.2218C81.9611 73.5782 83.4241 71.9462 84.2843 72.2266Z" fill="white"/>
<path d="M85.4362 59.2397C85.079 60.288 83.5162 60.7066 81.961 60.1805C80.4058 59.6544 79.4227 58.368 79.7798 57.3197C80.137 56.2714 81.6998 55.8528 83.2358 56.3827C84.7718 56.9127 85.7894 58.1914 85.4362 59.2397Z" fill="#263238"/>
<path d="M76.416 58.9518C75.6173 61.8087 75.2179 62.9991 76.1318 64.9652C77.5065 67.9258 81.1853 68.3905 82.8211 65.8522C84.2918 63.5713 85.3517 59.282 83.0016 57.1354C82.5056 56.6561 81.8932 56.3144 81.2249 56.144C80.5565 55.9737 79.8553 55.9805 79.1904 56.1639C78.5254 56.3473 77.9198 56.7009 77.4333 57.1898C76.9468 57.6787 76.5961 58.286 76.416 58.9518Z" fill="#B55B52"/>
<path d="M80.878 55.6148C79.726 56.2752 77.28 52.1396 74.2425 55.6148C72.0691 58.1069 73.4553 61.7588 73.4553 61.7588C73.4553 61.7588 71.7235 58.7136 70.3411 60.1997C68.5363 62.1197 70.4025 68.9895 76.3545 68.5172C82.3065 68.0448 81.7305 63.2141 81.7305 63.2141C81.7305 63.2141 84.5184 60.3802 84.3801 57.8381C84.2764 55.9335 82.798 54.528 80.878 55.6148Z" fill="#263238"/>
<path d="M81.6001 61.4055C81.4516 61.9371 81.4704 62.5015 81.6538 63.0221C81.8996 63.7555 82.4641 63.7594 82.7636 63.2525C83.0631 62.7456 83.2282 61.8663 82.802 61.2749C82.3758 60.6836 81.7921 60.818 81.6001 61.4055Z" fill="#B55B52"/>
<path d="M77.1842 89.0881C77.1842 89.0881 75.9017 93.5348 74.2543 99.4023C73.1599 103.311 71.9004 107.85 70.7523 112.124C70.0956 114.57 69.4774 116.928 68.9436 119.036C65.9254 130.959 50.8726 141.208 50.8726 141.208L47.958 138.002C47.958 138.002 58.0726 129.485 61.014 118.36C66.9545 95.7774 63.6137 91.9681 68.3484 87.3793L77.1842 89.0881Z" fill="#263238"/>
<path opacity="0.2" d="M75.8861 93.0739C75.4406 94.7981 74.88 96.9754 74.2617 99.4099C73.1673 103.319 71.9078 107.858 70.7597 112.132C70.2681 106.679 69.9917 96.6528 74.0045 93.5347C74.7955 92.928 75.4214 92.8013 75.8861 93.0739Z" fill="black"/>
<path d="M51.1223 141.669L47.4819 137.664L48.584 136.558L53.0499 140.767L51.1223 141.669Z" fill="#55B948"/>
<path opacity="0.7" d="M51.1223 141.669L47.4819 137.664L48.584 136.558L53.0499 140.767L51.1223 141.669Z" fill="white"/>
<path d="M47.7813 144.71C47.7447 144.71 47.7084 144.703 47.6738 144.691C47.3167 144.561 47.0901 143.877 46.9864 143.482C46.9831 143.468 46.9838 143.454 46.9886 143.441C46.9934 143.428 47.002 143.417 47.0133 143.409C47.0245 143.401 47.0379 143.396 47.0517 143.396C47.0655 143.396 47.0789 143.401 47.0901 143.409C47.1976 143.47 48.1423 144.023 48.1615 144.411C48.1647 144.453 48.1563 144.495 48.1374 144.533C48.1185 144.571 48.0896 144.603 48.0539 144.626C47.9755 144.685 47.8792 144.714 47.7813 144.71ZM47.1707 143.616C47.3282 144.134 47.5279 144.484 47.7237 144.553C47.7656 144.566 47.81 144.568 47.853 144.56C47.8959 144.551 47.936 144.531 47.9695 144.503C48.0194 144.469 48.0232 144.434 48.0194 144.411C48.0002 144.211 47.5432 143.85 47.1707 143.616Z" fill="#55B948"/>
<path d="M80.1869 89.7101C80.1869 89.7101 80.9549 113.449 79.2576 122.392C77.5142 131.712 72.192 152.832 72.192 152.832L67.8682 152.275C67.8682 152.275 70.6022 130.902 71.7658 121.663C73.0291 111.587 71.3818 87.9897 71.3818 87.9897L80.1869 89.7101Z" fill="#263238"/>
<path d="M73.1217 153.097L66.9585 152.302L67.0315 150.835L73.7399 151.127L73.1217 153.097Z" fill="#55B948"/>
<path opacity="0.7" d="M73.1217 153.097L66.9585 152.302L67.0315 150.835L73.7399 151.127L73.1217 153.097Z" fill="white"/>
<path d="M47.9271 143.781C47.6081 143.766 47.2968 143.678 47.017 143.524C47.0065 143.517 46.9978 143.508 46.9918 143.498C46.9857 143.487 46.9825 143.475 46.9824 143.462C46.9841 143.45 46.9884 143.438 46.995 143.428C47.0017 143.417 47.0104 143.408 47.0208 143.401C47.0554 143.401 47.7888 142.998 48.2112 143.155C48.2642 143.174 48.3123 143.205 48.3521 143.245C48.3919 143.285 48.4225 143.333 48.4416 143.386C48.4669 143.437 48.4741 143.495 48.4623 143.551C48.4505 143.606 48.4202 143.656 48.3763 143.693C48.2399 143.77 48.0824 143.801 47.9271 143.781ZM47.209 143.47C47.5431 143.624 48.1267 143.708 48.288 143.581C48.3149 143.558 48.3418 143.524 48.288 143.436C48.2767 143.402 48.2576 143.371 48.2323 143.345C48.207 143.32 48.1761 143.301 48.1421 143.29C47.8199 143.254 47.4944 143.316 47.209 143.47Z" fill="#55B948"/>
<path d="M72.4148 156.948C72.0985 156.942 71.7836 156.906 71.474 156.841C71.4592 156.839 71.4455 156.833 71.4351 156.822C71.4246 156.812 71.418 156.798 71.4164 156.783C71.4141 156.769 71.4166 156.754 71.4235 156.741C71.4304 156.727 71.4414 156.717 71.4548 156.71C71.593 156.637 72.8064 156.027 73.1674 156.23C73.2018 156.249 73.2306 156.277 73.2509 156.311C73.2711 156.345 73.2821 156.383 73.2826 156.422C73.2901 156.486 73.2813 156.551 73.2572 156.611C73.233 156.671 73.1942 156.723 73.1444 156.764C72.9286 156.906 72.6717 156.97 72.4148 156.948ZM71.712 156.741C72.3725 156.852 72.864 156.822 73.0522 156.66C73.0845 156.632 73.1094 156.596 73.1248 156.556C73.1402 156.516 73.1456 156.473 73.1405 156.43C73.1416 156.415 73.1382 156.399 73.1307 156.385C73.1232 156.372 73.112 156.361 73.0983 156.353C72.9024 156.246 72.2112 156.503 71.712 156.741Z" fill="#55B948"/>
<path d="M71.4897 156.845C71.4759 156.849 71.4613 156.849 71.4474 156.845C71.4371 156.838 71.4288 156.828 71.4234 156.816C71.4181 156.805 71.4157 156.792 71.4167 156.78C71.4167 156.726 71.5665 155.428 72.2922 155.505C72.4842 155.524 72.5418 155.62 72.5534 155.7C72.6071 156.038 71.8814 156.691 71.5166 156.852L71.4897 156.845ZM72.2346 155.628C71.8046 155.628 71.6318 156.338 71.578 156.645C71.962 156.422 72.4458 155.912 72.4151 155.708C72.4151 155.708 72.4151 155.643 72.2769 155.631L72.2346 155.628Z" fill="#55B948"/>
<path d="M68.2755 86.6458L67.5574 87.6097C67.5036 87.6865 67.5881 87.7902 67.7263 87.817L80.3407 90.2593C80.4483 90.2593 80.5481 90.2593 80.5635 90.1786L80.8515 89.1265C80.8515 89.0574 80.7862 88.9729 80.6671 88.9498L68.4867 86.5921C68.4498 86.5822 68.411 86.5819 68.374 86.5914C68.3371 86.6008 68.3031 86.6195 68.2755 86.6458Z" fill="#55B948"/>
<path d="M69.6884 88.32L69.3621 88.2547C69.2968 88.2547 69.2545 88.201 69.2661 88.1626L69.6501 86.7994C69.6501 86.761 69.7269 86.7379 69.7883 86.7494L70.1147 86.8147C70.18 86.8147 70.2261 86.8685 70.2145 86.9069L69.8305 88.2701C69.8152 88.32 69.7537 88.32 69.6884 88.32Z" fill="#263238"/>
<path d="M77.9253 89.929L77.5989 89.8676C77.5336 89.8676 77.4913 89.81 77.5029 89.7716L77.8869 88.4122C77.8869 88.37 77.9598 88.347 78.0251 88.3623L78.3515 88.4238C78.4129 88.4238 78.459 88.4814 78.4475 88.5198L78.0635 89.8791C78.052 89.9214 77.9905 89.9444 77.9253 89.929Z" fill="#263238"/>
</svg>
