<svg width="169" height="107" viewBox="0 0 169 107" fill="none" xmlns="http://www.w3.org/2000/svg">
<mask id="mask0_433_653" style="mask-type:luminance" maskUnits="userSpaceOnUse" x="0" y="0" width="169" height="107">
<rect x="0.689453" width="168.196" height="106.203" rx="14" fill="white"/>
</mask>
<g mask="url(#mask0_433_653)">
<rect x="0.689453" y="0.000244141" width="168.196" height="106.203" rx="3" fill="#55B948"/>
<path d="M125.395 110.192L93.5543 73.9854L74.4551 95.6883L124.903 153.053H163.089L125.395 110.192Z" fill="#FECB5F"/>
<path d="M125.395 84.1302L163.088 127.053H201.273L144.494 62.3958L125.395 84.1302Z" fill="#F8F9FA"/>
<path d="M59.6992 -14.7407L124.494 58.6986L181.274 123.053H210.059V112.399L78.7857 -36.3879L59.6992 -14.7407Z" fill="#EB001B"/>
<path d="M144.934 17.9061L199.059 79.4325V36.0256L164.033 -3.80444L144.934 17.9061Z" fill="#FECB5F"/>
</g>
<path d="M26.2582 23.7184H19.8398V12.3137H26.2583L26.2582 23.7184Z" fill="#FF5F00"/>
<path d="M20.0663 18.0934C20.0663 15.78 21.1619 13.7192 22.8679 12.3911C21.5765 11.3843 19.9793 10.8379 18.3348 10.8403C14.2838 10.8403 11 14.0876 11 18.0934C11 22.0992 14.2838 25.3465 18.3348 25.3465C19.9794 25.3489 21.5766 24.8025 22.868 23.7957C21.1621 22.4679 20.0663 20.407 20.0663 18.0934Z" fill="#EB001B"/>
<path d="M34.6557 18.0934C34.6557 22.0992 31.3719 25.3465 27.3209 25.3465C25.6762 25.3489 24.0787 24.8025 22.7871 23.7957C24.4936 22.4677 25.5891 20.407 25.5891 18.0934C25.5891 15.7799 24.4936 13.7192 22.7871 12.3911C24.0787 11.3844 25.6761 10.838 27.3208 10.8403C31.3718 10.8403 34.6557 14.0876 34.6557 18.0934Z" fill="#F8F9FA"/>
<rect opacity="0.5" x="12" y="79" width="50" height="9" fill="#FBFBFC"/>
<rect opacity="0.5" x="11" y="40" width="131" height="19" fill="#FBFBFC"/>
<rect opacity="0.5" x="12" y="90" width="38" height="9" fill="#FBFBFC"/>
</svg>
