<svg width="29" height="28" viewBox="0 0 29 28" fill="none" xmlns="http://www.w3.org/2000/svg">
<path d="M3.93333 21C3.41787 21 3 21.4179 3 21.9333C3 23.9952 4.67147 25.6667 6.73333 25.6667H22.6C24.6619 25.6667 26.3333 23.9952 26.3333 21.9333C26.3333 21.4179 25.9155 21 25.4 21H3.93333Z" fill="#777E91"/>
<path fill-rule="evenodd" clip-rule="evenodd" d="M17.7642 7.46441C18.0211 6.97736 18.1666 6.42236 18.1666 5.83337C18.1666 3.90038 16.5996 2.33337 14.6666 2.33337C12.7336 2.33337 11.1666 3.90038 11.1666 5.83337C11.1666 6.42236 11.3121 6.97736 11.5691 7.46441C7.28206 8.78608 4.16663 12.7792 4.16663 17.5V18.1111C4.16663 18.418 4.41536 18.6667 4.72218 18.6667H24.6111C24.9179 18.6667 25.1666 18.418 25.1666 18.1111V17.5C25.1666 12.7792 22.0512 8.78608 17.7642 7.46441ZM15.8333 5.83337C15.8333 6.47771 15.311 7.00004 14.6666 7.00004C14.0223 7.00004 13.5 6.47771 13.5 5.83337C13.5 5.18904 14.0223 4.66671 14.6666 4.66671C15.311 4.66671 15.8333 5.18904 15.8333 5.83337Z" fill="#777E91"/>
</svg>
