<svg width="29" height="28" viewBox="0 0 29 28" fill="none" xmlns="http://www.w3.org/2000/svg">
<path fill-rule="evenodd" clip-rule="evenodd" d="M2.66675 15.1666C2.66675 13.2336 4.23375 11.6666 6.16675 11.6666H22.5001C24.4331 11.6666 26.0001 13.2336 26.0001 15.1666C26.0001 20.9656 21.2991 25.6666 15.5001 25.6666H13.1667C7.36776 25.6666 2.66675 20.9656 2.66675 15.1666ZM6.16675 14H22.5001C23.1444 14 23.6667 14.5223 23.6667 15.1666C23.6667 15.5627 23.6385 15.9523 23.584 16.3333H5.08279C5.02828 15.9523 5.00008 15.5627 5.00008 15.1666C5.00008 14.5223 5.52242 14 6.16675 14ZM5.78598 18.6666C7.09669 21.4257 9.90895 23.3333 13.1667 23.3333H15.5001C18.7579 23.3333 21.5701 21.4257 22.8808 18.6666H5.78598Z" fill="#777E91"/>
<path d="M10.8333 2.33337C11.4777 2.33337 12 2.85571 12 3.50004C12 4.93105 11.6182 5.70576 11.2935 6.35512L11.2842 6.37371C11.03 6.88191 10.8333 7.27522 10.8333 8.16671C10.8333 8.81104 10.311 9.33337 9.66667 9.33337C9.02233 9.33337 8.5 8.81104 8.5 8.16671C8.5 6.7357 8.88182 5.96099 9.2065 5.31162L9.2158 5.29304C9.46996 4.78484 9.66667 4.39153 9.66667 3.50004C9.66667 2.85571 10.189 2.33337 10.8333 2.33337Z" fill="#777E91"/>
<path d="M15.5 2.33337C16.1443 2.33337 16.6667 2.85571 16.6667 3.50004C16.6667 4.93105 16.2848 5.70576 15.9602 6.35512L15.9509 6.37371C15.6967 6.88191 15.5 7.27522 15.5 8.16671C15.5 8.81104 14.9777 9.33337 14.3333 9.33337C13.689 9.33337 13.1667 8.81104 13.1667 8.16671C13.1667 6.7357 13.5485 5.96099 13.8732 5.31162L13.8825 5.29304C14.1366 4.78484 14.3333 4.39153 14.3333 3.50004C14.3333 2.85571 14.8557 2.33337 15.5 2.33337Z" fill="#777E91"/>
<path d="M21.3333 3.50004C21.3333 2.85571 20.811 2.33337 20.1667 2.33337C19.5223 2.33337 19 2.85571 19 3.50004C19 4.39153 18.8033 4.78484 18.5491 5.29304L18.5398 5.31162C18.2152 5.96099 17.8333 6.7357 17.8333 8.16671C17.8333 8.81104 18.3557 9.33337 19 9.33337C19.6443 9.33337 20.1667 8.81104 20.1667 8.16671C20.1667 7.27522 20.3634 6.88191 20.6175 6.37371L20.6268 6.35512C20.9515 5.70576 21.3333 4.93105 21.3333 3.50004Z" fill="#777E91"/>
</svg>
