<svg width="26" height="24" viewBox="0 0 26 24" fill="none" xmlns="http://www.w3.org/2000/svg">
<path d="M22.3334 19.9333V8.46046L24.0666 9.50033C24.6191 9.83184 25.3357 9.65268 25.6672 9.10017C25.9987 8.54766 25.8196 7.83102 25.267 7.49952L19.4081 3.98417L14.9267 1.28417L14.9266 1.28407C14.6008 1.08782 14.3509 0.937207 14.139 0.823953C14.0896 0.796292 14.0393 0.770564 13.9885 0.74677C13.8121 0.660718 13.6593 0.603439 13.5022 0.568831C13.1715 0.495936 12.8288 0.495936 12.498 0.568833C12.3405 0.603531 12.1873 0.661017 12.0103 0.747443C11.9604 0.770847 11.9111 0.796115 11.8625 0.823249C11.6504 0.936592 11.4 1.08743 11.0736 1.28411L11.0735 1.28414L6.58541 3.98821L0.733224 7.49952C0.180714 7.83102 0.00155433 8.54766 0.333061 9.10017C0.664567 9.65268 1.3812 9.83184 1.93371 9.50033L3.66677 8.4605V19.9333C3.66677 21.2401 3.66677 21.8935 3.92109 22.3927C4.14479 22.8317 4.50175 23.1887 4.94079 23.4124C5.43992 23.6667 6.09331 23.6667 7.4001 23.6667L9.5001 23.6666V16.6666C9.5001 14.7336 11.0671 13.1666 13.0001 13.1666C14.9331 13.1666 16.5001 14.7336 16.5001 16.6666V23.6666L18.6001 23.6667C19.9069 23.6667 20.5603 23.6667 21.0594 23.4124C21.4985 23.1887 21.8554 22.8317 22.0791 22.3927C22.3334 21.8935 22.3334 21.2401 22.3334 19.9333Z" fill="#55B948"/>
</svg>
