<svg width="563" height="500" viewBox="0 0 563 500" fill="none" xmlns="http://www.w3.org/2000/svg">
<path d="M470.719 367.402C499.848 312.639 507.579 249.001 492.408 188.856C477.237 128.711 440.248 76.3537 388.629 41.9576C337.011 7.56153 274.448 -6.41668 213.099 2.73915C151.749 11.895 95.9943 43.5309 56.6677 91.4998C17.3412 139.469 -2.74835 200.344 0.302865 262.298C3.35408 324.252 29.3281 382.859 73.1778 426.732C117.028 470.604 175.621 496.608 237.574 499.692C299.526 502.775 371.696 464.086 419.685 424.784L364 373.712C330.408 401.224 284.668 426.943 241.302 424.784C197.935 422.626 156.919 404.423 126.225 373.712C95.5297 343.002 77.3479 301.977 75.2121 258.609C73.0762 215.241 87.1389 172.628 114.667 139.05C142.196 105.472 181.225 83.3267 224.169 76.9176C267.114 70.5085 310.908 80.2933 347.041 104.371C383.174 128.448 409.066 165.098 419.685 207.2C430.305 249.301 424.894 293.847 404.503 332.182L470.719 367.402Z" fill="#55B948"/>
<path d="M413.652 318.897L562.206 442.891L498.277 472.939L338 339.16L413.652 318.897Z" fill="#55B948"/>
</svg>
