<svg width="24" height="17" viewBox="0 0 24 17" fill="none" xmlns="http://www.w3.org/2000/svg">
<path id="Vector" d="M1.36558 16.3869C0.978667 16.3869 0.654115 16.2558 0.391925 15.9936C0.129734 15.7314 -0.000905659 15.4073 4.72518e-06 15.0213C4.72518e-06 14.6344 0.1311 14.3099 0.393291 14.0477C0.655481 13.7855 0.979578 13.6549 1.36558 13.6558H16.3869C16.7738 13.6558 17.0984 13.7869 17.3606 14.049C17.6228 14.3112 17.7534 14.6353 17.7525 15.0213C17.7525 15.4083 17.6214 15.7328 17.3592 15.995C17.097 16.2572 16.7729 16.3878 16.3869 16.3869H1.36558ZM21.7127 14.0654L16.7966 9.14936C16.5235 8.87625 16.3869 8.55761 16.3869 8.19346C16.3869 7.82931 16.5235 7.51067 16.7966 7.23756L21.7127 2.32148C21.963 2.07113 22.2817 1.94595 22.6686 1.94595C23.0555 1.94595 23.3741 2.07113 23.6245 2.32148C23.8748 2.57184 24 2.89047 24 3.27739C24 3.6643 23.8748 3.98293 23.6245 4.23329L19.6643 8.19346L23.6245 12.1536C23.8748 12.404 24 12.7226 24 13.1095C24 13.4964 23.8748 13.8151 23.6245 14.0654C23.3741 14.3158 23.0555 14.441 22.6686 14.441C22.2817 14.441 21.963 14.3158 21.7127 14.0654ZM1.36558 9.55904C0.978667 9.55904 0.654115 9.42794 0.391925 9.16575C0.129734 8.90356 -0.000905659 8.57946 4.72518e-06 8.19346C4.72518e-06 7.80655 0.1311 7.48199 0.393291 7.2198C0.655481 6.95761 0.979578 6.82697 1.36558 6.82788H12.2902C12.6771 6.82788 13.0017 6.95898 13.2638 7.22117C13.526 7.48336 13.6567 7.80746 13.6558 8.19346C13.6558 8.58037 13.5247 8.90492 13.2625 9.16712C13.0003 9.42931 12.6762 9.55995 12.2902 9.55904H1.36558ZM1.36558 2.73116C0.978667 2.73116 0.654115 2.60006 0.391925 2.33787C0.129734 2.07568 -0.000905659 1.75158 4.72518e-06 1.36558C4.72518e-06 0.978667 0.1311 0.654116 0.393291 0.391925C0.655481 0.129735 0.979578 -0.000905659 1.36558 4.72517e-06H16.3869C16.7738 4.72517e-06 17.0984 0.1311 17.3606 0.393291C17.6228 0.655481 17.7534 0.979578 17.7525 1.36558C17.7525 1.75249 17.6214 2.07705 17.3592 2.33924C17.097 2.60143 16.7729 2.73207 16.3869 2.73116H1.36558Z" fill="white"/>
</svg>
