<svg width="24" height="24" viewBox="0 0 24 24" fill="none" xmlns="http://www.w3.org/2000/svg">
<path d="M10.1944 23.5278C10.5352 23.5807 10.8333 23.3099 10.8333 22.9649V13.75C10.8333 13.4278 10.5722 13.1667 10.25 13.1667H8.97069C8.67084 13.1667 8.42142 13.3944 8.37834 13.6911C7.99744 16.3144 6.74367 18.6548 4.92114 20.4083C4.66315 20.6565 4.66184 21.0774 4.94686 21.294C6.45186 22.4379 8.24315 23.2246 10.1944 23.5278Z" fill="#777E91"/>
<path d="M2.44293 18.693C2.63204 18.9626 3.01181 19.0034 3.25084 18.777C4.6278 17.4726 5.60751 15.7531 5.98956 13.8188C6.05754 13.4746 5.78468 13.1667 5.43387 13.1667H1.03506C0.690117 13.1667 0.419258 13.4647 0.472215 13.8056C0.751542 15.6035 1.44139 17.2656 2.44293 18.693Z" fill="#777E91"/>
<path d="M0.472215 10.1944C0.419258 10.5353 0.690117 10.8333 1.03506 10.8333H5.43387C5.78468 10.8333 6.05754 10.5254 5.98956 10.1812C5.60751 8.24693 4.6278 6.52741 3.25085 5.22304C3.01181 4.99661 2.63204 5.03745 2.44293 5.30698C1.44139 6.73445 0.751542 8.39654 0.472215 10.1944Z" fill="#777E91"/>
<path d="M4.94686 2.70598C4.66183 2.92261 4.66315 3.34352 4.92114 3.59173C6.74367 5.34522 7.99744 7.68565 8.37834 10.3089C8.42142 10.6056 8.67084 10.8333 8.97069 10.8333H10.25C10.5722 10.8333 10.8333 10.5722 10.8333 10.25V1.03506C10.8333 0.69011 10.5352 0.419257 10.1944 0.472216C8.24315 0.775376 6.45186 1.56208 4.94686 2.70598Z" fill="#777E91"/>
<path d="M19.0789 20.4083C19.3369 20.6565 19.3382 21.0774 19.0532 21.294C17.5482 22.4379 15.7569 23.2246 13.8056 23.5278C13.4648 23.5807 13.1667 23.3099 13.1667 22.9649V13.75C13.1667 13.4278 13.4278 13.1667 13.75 13.1667H15.0293C15.3292 13.1667 15.5786 13.3944 15.6217 13.6911C16.0026 16.3144 17.2563 18.6548 19.0789 20.4083Z" fill="#777E91"/>
<path d="M20.7492 18.777C20.9882 19.0034 21.368 18.9626 21.5571 18.693C22.5586 17.2656 23.2485 15.6035 23.5278 13.8056C23.5808 13.4647 23.3099 13.1667 22.965 13.1667H18.5661C18.2153 13.1667 17.9425 13.4746 18.0105 13.8188C18.3925 15.7531 19.3722 17.4726 20.7492 18.777Z" fill="#777E91"/>
<path d="M22.965 10.8333C23.3099 10.8333 23.5808 10.5353 23.5278 10.1944C23.2485 8.39654 22.5586 6.73445 21.5571 5.30698C21.368 5.03745 20.9882 4.99661 20.7492 5.22304C19.3722 6.52741 18.3925 8.24693 18.0105 10.1812C17.9425 10.5254 18.2153 10.8333 18.5661 10.8333H22.965Z" fill="#777E91"/>
<path d="M19.0789 3.59173C19.3369 3.34352 19.3382 2.92261 19.0532 2.70598C17.5482 1.56208 15.7569 0.775375 13.8056 0.472216C13.4648 0.419257 13.1667 0.690111 13.1667 1.03506V10.25C13.1667 10.5722 13.4278 10.8333 13.75 10.8333H15.0293C15.3292 10.8333 15.5786 10.6056 15.6217 10.3089C16.0026 7.68565 17.2563 5.34522 19.0789 3.59173Z" fill="#777E91"/>
</svg>
